<svg xmlns="http://www.w3.org/2000/svg" >
<defs>
<symbol id="quit"><path  d="M15 4.1 13.9 3 9.5 7.4 5.1 3 4 4.1l4.4 4.4L4 12.9 5.1 14l4.4-4.4 4.4 4.4 1.1-1.1-4.4-4.4L15 4.1Z"/></symbol>
<symbol id= "first"> <path d="m6 .09 7 6.63H0V38.9h34V26.6l7 6.62V.1H6Zm27.7 25.73L13.81 7H33.7v18.82Zm-6.18 8.37H5.38V12.54h1.57v20.19h20.57v1.46Zm-16.91 9-.82 1.68-.82-1.68H8.3l1.2 2.24v1.31h.61v-1.3l1.2-2.25h-.7Zm1.03 3.55.28-.83h1.38l.3.83h.64l-1.35-3.55h-.55l-1.35 3.55h.65Zm.97-2.8.52 1.48H12.1l.51-1.48Zm3.26 1.39a.8.8 0 0 0-.13.45c0 .3.1.54.31.73.21.19.5.28.85.28s.65-.1.9-.29l.2.24h.7l-.53-.62c.2-.28.3-.64.3-1.07h-.5c0 .24-.06.45-.16.65l-.68-.81.24-.18c.17-.12.3-.25.37-.37a.79.79 0 0 0-.14-.97.9.9 0 0 0-.63-.23.94.94 0 0 0-.69.24.87.87 0 0 0-.25.66c0 .11.03.23.08.35.05.13.15.27.29.45a2.1 2.1 0 0 0-.53.49Zm1.6.79a.9.9 0 0 1-.56.2.58.58 0 0 1-.42-.16.53.53 0 0 1-.16-.4c0-.19.1-.36.3-.5l.07-.06.77.92Zm-.63-1.58c-.17-.2-.25-.38-.25-.51 0-.12.03-.22.1-.3a.35.35 0 0 1 .27-.12c.11 0 .2.04.27.1.07.07.1.15.1.24 0 .14-.05.25-.15.34l-.07.07-.27.18Zm5.78 1.93c.25-.21.39-.5.42-.89h-.61c-.03.26-.11.44-.23.55-.13.1-.3.16-.55.16a.69.69 0 0 1-.6-.3c-.14-.2-.21-.5-.21-.88v-.31c0-.38.07-.67.22-.87.14-.2.35-.3.62-.3.23 0 .4.06.52.18.12.11.2.3.23.55h.61a1.34 1.34 0 0 0-.41-.9 1.37 1.37 0 0 0-.95-.32c-.3 0-.55.07-.77.2-.22.14-.4.34-.51.6-.12.25-.18.55-.18.88v.33c0 .33.06.62.18.87.12.24.28.43.5.57.22.13.47.2.75.2.4 0 .73-.1.97-.32Zm3.63-.5c.12-.26.18-.57.18-.91v-.2c0-.35-.06-.65-.18-.91a1.36 1.36 0 0 0-1.3-.81c-.28 0-.54.07-.76.21-.23.14-.4.34-.52.6-.12.27-.19.58-.19.93v.2c0 .34.07.64.19.9s.3.46.52.6c.23.14.49.21.77.21.3 0 .55-.07.78-.21.22-.14.4-.34.51-.6Zm-.66-2c.15.2.23.5.23.9v.19c0 .4-.08.7-.23.9a.72.72 0 0 1-.63.32.74.74 0 0 1-.63-.32 1.55 1.55 0 0 1-.23-.9v-.2c0-.4.08-.69.23-.9a.73.73 0 0 1 .63-.31c.27 0 .48.1.63.31Z" clip-rule="evenodd"/></symbol>
<symbol id= "sixth" ><path   d="M47.42 21.5a2.95 2.95 0 0 1-.6-2v-2.88c0-.88.2-1.55.6-2.01.4-.46 1.1-.69 2.07-.69.91 0 1.57.2 1.95.59.42.5.62 1.1.58 1.72v.68h-1.64v-.69c0-.22-.01-.44-.05-.67a.65.65 0 0 0-.23-.4.95.95 0 0 0-.6-.15 1 1 0 0 0-.62.16.77.77 0 0 0-.28.44c-.04.24-.06.48-.06.72v3.5c-.03.33.05.67.21.98.08.1.2.18.33.24a.9.9 0 0 0 .42.05.9.9 0 0 0 .58-.16.7.7 0 0 0 .25-.42c.03-.24.05-.47.05-.7v-.71h1.64v.64c.04.65-.16 1.28-.57 1.82-.38.43-1.02.64-1.96.64-.95 0-1.66-.23-2.07-.7ZM54.26 21.52c-.42-.44-.62-1.1-.62-1.96v-3.04c0-.85.2-1.5.62-1.94.41-.44 1.1-.66 2.08-.66.96 0 1.65.22 2.06.66.42.44.63 1.09.63 1.94v3.04c0 .85-.21 1.51-.63 1.96-.42.45-1.1.68-2.06.68s-1.67-.23-2.08-.68Zm2.84-.72c.15-.28.22-.6.2-.9v-3.71c.02-.3-.05-.6-.2-.88a.78.78 0 0 0-.33-.25.9.9 0 0 0-.43-.05.92.92 0 0 0-.44.06.79.79 0 0 0-.34.24c-.14.27-.21.57-.2.88v3.73c-.01.3.05.61.2.9a1.16 1.16 0 0 0 1.19.22c.14-.05.25-.13.35-.23v-.01ZM61 14.01h1.77l1.33 5.6 1.36-5.6h1.72l.17 8.08h-1.27l-.14-5.62-1.3 5.62H63.6l-1.36-5.64-.12 5.64h-1.29L61 14ZM69.33 14.01h2.75c1.59 0 2.38.77 2.38 2.3 0 1.46-.83 2.19-2.5 2.19h-.94v3.59h-1.7l.01-8.08Zm2.35 3.45c.17.02.34 0 .5-.04.16-.04.31-.11.44-.21.19-.28.28-.6.24-.91 0-.25-.02-.5-.08-.74a.6.6 0 0 0-.13-.22.7.7 0 0 0-.21-.16c-.24-.1-.5-.14-.76-.13h-.66v2.41h.66ZM76.9 14.01h1.83l1.88 8.08h-1.59l-.37-1.86h-1.63l-.38 1.86h-1.6L76.9 14Zm1.57 5.28-.64-3.4-.63 3.4h1.27ZM82.12 14.01h1.19l2.27 4.6v-4.6H87v8.08h-1.13l-2.29-4.81v4.8h-1.46v-8.07ZM90.3 19l-1.9-4.98H90l1.15 3.2 1.08-3.2h1.56l-1.86 4.99v3.08h-1.64V19ZM50.05 25.62v.42h-1.39v3.28h-.58v-3.28h-1.4v-.42h3.37ZM54.4 29.32h-.46a.2.2 0 0 1-.12-.03.2.2 0 0 1-.08-.09l-.4-.88h-1.92l-.4.88a.24.24 0 0 1-.06.1.2.2 0 0 1-.13.04h-.45l1.7-3.7h.6l1.71 3.68Zm-2.82-1.37h1.6l-.68-1.51a2.7 2.7 0 0 1-.12-.35l-.07.2-.06.15-.67 1.5ZM57.32 28.96h.32a1.92 1.92 0 0 0 .52-.11l.22-.1v-.83h-.68a.14.14 0 0 1-.09-.03.09.09 0 0 1-.02-.03l-.01-.03v-.29h1.32v1.42a2.57 2.57 0 0 1-1.14.38c-.17.02-.33.02-.5.02-.3 0-.58-.04-.86-.13a2.09 2.09 0 0 1-.68-.4 1.8 1.8 0 0 1-.43-.58c-.11-.24-.16-.5-.16-.77a1.7 1.7 0 0 1 .6-1.36c.18-.16.42-.3.67-.38a2.85 2.85 0 0 1 1.38-.1 2.33 2.33 0 0 1 .75.23l.3.2-.17.23a.14.14 0 0 1-.06.05.17.17 0 0 1-.07.02.22.22 0 0 1-.1-.03l-.17-.1a2.13 2.13 0 0 0-.97-.21 2 2 0 0 0-.66.1c-.2.07-.36.17-.5.3-.14.13-.25.3-.32.46-.15.4-.15.84 0 1.24a1.45 1.45 0 0 0 1.5.83ZM62.74 28.9h1.85v.42h-2.42v-3.7h.58l-.01 3.28ZM66.52 29.32h-.58v-3.7h.58v3.7ZM68.68 25.64c.04.01.07.04.09.06l2.48 2.8V25.6h.5v3.72h-.28c-.05 0-.09 0-.13-.02a.33.33 0 0 1-.09-.07l-2.48-2.79v2.88h-.49v-3.7h.3c.04 0 .07 0 .1.02ZM76.04 25.62v.4h-2.06v1.23h1.67v.4h-1.67v1.26h2.06v.4h-2.66v-3.7h2.66ZM15.16 2.74l25.8 6.33v22.15l-25.8-6.32V2.74ZM13.51.85v25.13l29.1 7.14V7.99L13.5.85Z"/><path  d="M29.1 44.78 0 37.64V12.5l29.1 7.14v25.13Z"/><path  d="M13.99 2.46 39.45 8.7l-10.83 9.35L3.16 11.8l10.83-9.34Zm-.48-1.6L0 12.5l29.1 7.14L42.6 8 13.5.85ZM30.74 43.37l11.87-10.25-11.87-2.91v13.16Z"/></symbol>
<symbol id= "fifth"><path  d="M4.76 38.82c.24.28.37.62.36.98.02.23-.03.46-.13.68-.1.2-.24.4-.43.55-.48.33-1.06.49-1.66.45H0V35.3h2.84a2.6 2.6 0 0 1 1.58.41c.18.14.33.32.42.52.1.2.14.42.13.64.02.34-.1.68-.33.95-.22.24-.52.42-.86.48.38.07.73.25.98.53Zm-3.4-.93h1.2c.28.02.56-.06.78-.2.1-.08.16-.18.2-.28.05-.1.07-.22.06-.33a.7.7 0 0 0-.05-.33.76.76 0 0 0-.2-.28 1.26 1.26 0 0 0-.8-.2h-1.2v1.62Zm2.1 2.37c.1-.08.17-.17.22-.28.05-.11.07-.23.07-.35a.72.72 0 0 0-.07-.35.79.79 0 0 0-.23-.28 1.34 1.34 0 0 0-.82-.23H1.35v1.7h1.3c.28.02.57-.05.8-.2ZM10.57 41.48 9 39.06h-.6v2.42H7.03V35.3h2.58a2.7 2.7 0 0 1 1.8.53 1.86 1.86 0 0 1 .2 2.56c-.33.33-.77.56-1.24.63l1.68 2.47h-1.48ZM8.4 38.22h1.12c.77 0 1.16-.31 1.16-.94a.85.85 0 0 0-.07-.37.92.92 0 0 0-.22-.32 1.28 1.28 0 0 0-.87-.25H8.38l.01 1.88ZM18.01 40.24H15.3l-.48 1.24h-1.43l2.5-6.12h1.54l2.48 6.12h-1.43L18 40.24Zm-.36-.94-1-2.61-.99 2.61h1.99ZM27.32 41.48h-1.35l-3.03-4.2v4.2H21.6V35.3h1.35l3.03 4.24v-4.24h1.35v6.2ZM35.03 40c-.28.47-.7.85-1.22 1.1-.59.27-1.24.4-1.9.38h-2.4V35.3h2.4c.66-.01 1.31.12 1.9.38.52.24.94.62 1.22 1.08a3.36 3.36 0 0 1 0 3.25Zm-1.54-.15c.38-.4.6-.93.6-1.47 0-.55-.22-1.07-.6-1.48a2.49 2.49 0 0 0-1.7-.53h-.93v4.01h.94c.61.04 1.22-.15 1.69-.53ZM18.86.85S36.29 6.88 35.92 15.6v14.76S18.5 24.33 18.86 15.6V.85ZM51.46 26.9a25.3 25.3 0 0 1 11.08-3.73v-4.62a22.4 22.4 0 0 0-11.08 8.35Z"/><path d="M49.48 28.3a23.1 23.1 0 0 1 13.06-10.72V4.28s-24.84 8.58-24.31 21v21s1.1-.38 2.85-1.1c0-.67 0-1.35.08-2.03a21.28 21.28 0 0 1 8.32-14.85Z"/><path  d="M47.12 36.1c.13-1.46.42-2.9.87-4.3a19.43 19.43 0 0 0-5.26 12.69c1.41-.62 3.05-1.4 4.78-2.3-.44-2-.57-4.06-.39-6.09ZM48.1 36.18c-.16 1.84-.05 3.69.31 5.5 6.79-3.71 14.41-9.46 14.12-16.4v-.6a23.2 23.2 0 0 0-12.91 5.52 19.26 19.26 0 0 0-1.51 5.98Z" clip-rule="evenodd"/></symbol>
<symbol id= "third" ><path  d="M7.4 41.19a.13.13 0 0 1 .1.03l.2.21c-.16.17-.37.3-.6.4-.28.1-.58.14-.87.14-.28 0-.56-.04-.82-.13a1.67 1.67 0 0 1-1.01-.95 1.93 1.93 0 0 1 0-1.5c.1-.2.24-.4.43-.57.18-.16.4-.3.65-.38a2.57 2.57 0 0 1 1.63 0c.21.07.41.19.58.32l-.18.23a.18.18 0 0 1-.05.04.12.12 0 0 1-.07.01.18.18 0 0 1-.08-.02l-.1-.06-.13-.07a1.55 1.55 0 0 0-.76-.16c-.2 0-.41.03-.6.1a1.29 1.29 0 0 0-.78.73 1.5 1.5 0 0 0-.12.58c0 .2.04.4.11.6a1.24 1.24 0 0 0 .76.72c.18.06.37.1.56.1l.33-.03a1.32 1.32 0 0 0 .72-.3.17.17 0 0 1 .1-.04ZM13.7 40.14c0 .25-.04.5-.14.74-.1.21-.23.4-.41.57-.19.16-.4.3-.65.38-.53.17-1.12.17-1.66 0a1.91 1.91 0 0 1-.64-.38 1.68 1.68 0 0 1-.41-.58c-.2-.48-.2-1 0-1.48.1-.21.23-.4.41-.58.19-.15.4-.28.64-.36a2.61 2.61 0 0 1 1.66 0c.24.09.46.22.65.38a1.7 1.7 0 0 1 .55 1.31Zm-.57 0c0-.2-.03-.4-.1-.6a1.22 1.22 0 0 0-.75-.71 1.92 1.92 0 0 0-1.2 0 1.3 1.3 0 0 0-.47.28 1.2 1.2 0 0 0-.3.44c-.13.38-.13.8 0 1.18a1.2 1.2 0 0 0 .76.72c.39.13.82.13 1.2 0 .18-.06.34-.15.47-.27.13-.13.23-.28.29-.45.07-.19.1-.39.1-.59ZM18 40.76l.06.13.06-.13.07-.13 1.4-2.2c.02-.04.05-.06.07-.07a.38.38 0 0 1 .12-.01h.41v3.58h-.49V39.06l-1.4 2.23a.2.2 0 0 1-.08.09.24.24 0 0 1-.12.03h-.08a.24.24 0 0 1-.12-.03.2.2 0 0 1-.08-.09l-1.44-2.24v2.87h-.48v-3.57h.42l.11.01.08.07 1.42 2.2.07.13ZM23.24 40.58v1.34h-.54v-3.57h1.21c.23 0 .46.02.68.08.18.04.34.12.48.22.12.1.22.22.28.35.06.15.1.3.09.46a1 1 0 0 1-.4.81c-.14.11-.3.2-.48.24a2.3 2.3 0 0 1-.66.08h-.66Zm0-.38h.66c.15 0 .29-.02.43-.05a.92.92 0 0 0 .3-.16.69.69 0 0 0 .25-.54.6.6 0 0 0-.05-.29.69.69 0 0 0-.2-.24c-.2-.14-.46-.21-.73-.2h-.66v1.48ZM30.57 41.93h-.43a.2.2 0 0 1-.12-.03.22.22 0 0 1-.07-.09l-.37-.86h-1.86l-.39.86a.2.2 0 0 1-.2.12h-.42l1.64-3.58h.57l1.65 3.58Zm-2.7-1.33h1.54l-.65-1.46c-.05-.1-.09-.22-.12-.33l-.06.18-.06.16-.65 1.45ZM32.93 38.37c.03.01.06.03.08.06l2.39 2.7v-2.78h.48v3.58h-.27c-.04 0-.08 0-.11-.02a.3.3 0 0 1-.09-.07l-2.38-2.7v2.79h-.49v-3.58h.3c.02 0 .06 0 .09.02ZM39.9 40.5v1.43h-.54V40.5l-1.51-2.16h.49a.2.2 0 0 1 .12.03l.07.08.94 1.4a2.15 2.15 0 0 1 .17.3l.07-.14.1-.17.92-1.4a.38.38 0 0 1 .07-.07.18.18 0 0 1 .12-.04h.5l-1.52 2.17ZM17.73 32.34l.72.07a19.95 19.95 0 0 0 8.95-6.73 16.11 16.11 0 0 0 3.18-9.9l-4.06-3.53c.83 3.73.44 7.59-1.11 11.13a20.96 20.96 0 0 1-7.68 8.96Z"/><path d="m16.28 32.18.11.02c3.7-2.3 6.53-5.52 8.1-9.23a17.33 17.33 0 0 0 .76-11.59l-5.78-5.02a21.53 21.53 0 0 1 2.71 13.31 22.68 22.68 0 0 1-5.9 12.5ZM35.87 19.91a18.04 18.04 0 0 1-6.8 9.9c-1 .75-2.08 1.43-3.22 2 2.79-.7 5.36-1.97 7.5-3.68a16.65 16.65 0 0 0 4.86-6.18l-2.34-2.04Z"/><path d="m34.95 19.35-3.34-2.9a16.76 16.76 0 0 1-3.13 9.35 20.38 20.38 0 0 1-8.16 6.67h.02c.75 0 1.5-.04 2.24-.12a20.61 20.61 0 0 0 8.07-5.15 16.95 16.95 0 0 0 4.3-7.85ZM16.77 4.25 12.79.79A18.75 18.75 0 0 0 4 6.8a15 15 0 0 0-3.33 9.27 15.14 15.14 0 0 0 4.03 10.1 19.39 19.39 0 0 0 10.31 5.81 21.84 21.84 0 0 0 6.1-13.62 21.22 21.22 0 0 0-4.35-14.12ZM44.14 18.81c-.01-4.34-2-8.5-5.54-11.57a20.45 20.45 0 0 0-13.32-4.81c-2.31 0-4.6.36-6.76 1.09l24.36 21.16a14.35 14.35 0 0 0 1.26-5.87Z"/></symbol>
<symbol id= "fourth"><path  d="M13.15 13.19c-2.4 0-4.35 1.73-4.35 3.86s1.95 3.86 4.34 3.86c2.4 0 4.35-1.73 4.35-3.86s-1.95-3.86-4.34-3.86ZM45.2 11.96c-.01-2.96-1.34-5.8-3.7-7.9A13.43 13.43 0 0 0 32.64.8c-3.33 0-6.53 1.18-8.88 3.27a10.6 10.6 0 0 0-3.7 7.9v16.32S45.2 25.79 45.2 11.96ZM0 33.64c0 2.06.93 4.03 2.57 5.49a9.35 9.35 0 0 0 6.17 2.28c2.32 0 4.54-.83 6.18-2.28a7.38 7.38 0 0 0 2.57-5.5V22.29S0 24.01 0 33.64Zm8.74 2.03c-.45 0-.9-.12-1.27-.34a2.1 2.1 0 0 1-.84-.91 1.83 1.83 0 0 1-.13-1.18c.09-.4.3-.76.63-1.04a2.4 2.4 0 0 1 1.17-.56c.44-.08.9-.04 1.32.12.42.15.78.41 1.03.75a1.88 1.88 0 0 1-.28 2.57 2.54 2.54 0 0 1-1.62.6ZM24.73 32.03v4.26h-.88v-4.26h.88Zm1.7 1.82v.69h-1.94v-.69h1.94Zm.2-1.82v.69H24.5v-.7h2.14Zm4.02 2.03v.2c0 .33-.05.62-.13.88-.1.25-.22.47-.38.66-.16.18-.35.31-.57.4-.22.1-.47.15-.74.15a1.65 1.65 0 0 1-1.31-.56c-.16-.18-.28-.4-.37-.65a2.7 2.7 0 0 1-.13-.88v-.2c0-.32.04-.62.13-.87.09-.26.2-.48.37-.66.16-.18.35-.32.57-.42.23-.1.47-.14.74-.14s.51.05.73.14c.23.1.42.24.58.42.16.18.29.4.37.66.1.25.14.55.14.87Zm-.89.2v-.2c0-.23-.02-.43-.06-.6a1.3 1.3 0 0 0-.18-.44.78.78 0 0 0-.7-.35.8.8 0 0 0-.69.35c-.06.12-.12.27-.17.44a2.6 2.6 0 0 0-.06.6v.2c0 .23.02.43.06.6.05.17.1.32.19.44.08.12.17.2.29.26.11.06.25.1.4.1.14 0 .27-.03.39-.1a.79.79 0 0 0 .29-.26c.08-.12.14-.27.18-.44.04-.17.06-.37.06-.6Zm3.74.92a.56.56 0 0 0-.03-.2.39.39 0 0 0-.13-.18c-.06-.05-.14-.1-.25-.15l-.43-.16c-.19-.06-.37-.13-.55-.21a2.26 2.26 0 0 1-.45-.27c-.13-.11-.24-.23-.31-.37a1 1 0 0 1-.12-.48 1 1 0 0 1 .12-.49c.08-.14.19-.27.33-.37.14-.1.3-.19.5-.25a2.25 2.25 0 0 1 1.46.09c.23.11.41.27.54.47.13.2.2.42.2.67h-.88a.66.66 0 0 0-.07-.33.54.54 0 0 0-.24-.22.84.84 0 0 0-.4-.08.9.9 0 0 0-.37.07.5.5 0 0 0-.23.18.45.45 0 0 0-.08.26c0 .07.02.14.06.2.03.05.09.1.16.16a3.83 3.83 0 0 0 .63.28c.23.07.44.14.61.23.18.09.33.19.45.3a1.1 1.1 0 0 1 .36.84c0 .19-.04.35-.1.5-.08.15-.18.27-.32.37-.14.1-.3.18-.5.23a2.37 2.37 0 0 1-1.81-.25 1.25 1.25 0 0 1-.55-1.06h.88c0 .13.02.24.07.33.04.1.1.17.17.23.07.05.16.1.27.12.1.03.22.04.34.04.16 0 .28-.02.38-.07a.46.46 0 0 0 .3-.43Zm3.39-3.15v4.26H36v-4.26h.88Zm1.3 0v.69h-3.47v-.7h3.48Zm3.37 3.58v.68H39.3v-.68h2.27Zm-1.98-3.58v4.26h-.88v-4.26h.88Zm1.69 1.74v.66h-1.98v-.66h1.98Zm.29-1.74v.69h-2.27v-.7h2.27Zm.51 0h1.6c.32 0 .6.05.84.14.23.1.41.25.54.44.13.19.2.43.2.7 0 .23-.05.43-.13.6-.07.16-.18.3-.32.4-.14.1-.3.2-.5.26l-.27.14h-1.38v-.68h1.02a.8.8 0 0 0 .38-.08c.1-.06.18-.13.23-.23a.7.7 0 0 0 .08-.34.77.77 0 0 0-.07-.36.51.51 0 0 0-.24-.22.85.85 0 0 0-.39-.08h-.7v3.57h-.89v-4.26Zm2.39 4.26-.97-1.9h.92l.99 1.86v.04h-.94Zm4.61-1.52H48v-.68h1.08a.9.9 0 0 0 .41-.08c.1-.06.19-.14.23-.24.05-.1.08-.21.08-.34a.86.86 0 0 0-.08-.35.6.6 0 0 0-.23-.26.76.76 0 0 0-.4-.1h-.79v3.57h-.88v-4.26h1.66c.34 0 .62.06.86.18a1.3 1.3 0 0 1 .74 1.22c0 .27-.06.51-.19.71-.12.2-.3.36-.55.47-.24.1-.52.16-.86.16Zm5.07.84v.68h-2.27v-.68h2.27Zm-1.98-3.58v4.26h-.88v-4.26h.88Zm1.69 1.74v.66h-1.98v-.66h1.98Zm.29-1.74v.69h-2.27v-.7h2.27Zm2.48 0v4.26h-.88v-4.26h.88Zm1.31 0v.69h-3.48v-.7h3.48Zm3.37 3.58v.68h-2.27v-.68h2.27Zm-1.99-3.58v4.26h-.88v-4.26h.88ZM61 33.77v.66h-1.97v-.66H61Zm.3-1.74v.69h-2.27v-.7h2.26Zm.5 0h1.6c.33 0 .6.05.84.14.24.1.42.25.54.44.13.19.2.43.2.7 0 .23-.04.43-.12.6-.08.16-.19.3-.33.4-.14.1-.3.2-.49.26l-.27.14h-1.39v-.68h1.02a.8.8 0 0 0 .39-.08c.1-.06.18-.13.23-.23a.7.7 0 0 0 .08-.34.77.77 0 0 0-.08-.36.51.51 0 0 0-.23-.22.86.86 0 0 0-.4-.08h-.7v3.57h-.88v-4.26Zm2.4 4.26-.98-1.9h.93l.98 1.86v.04h-.94Zm3.67-1.11a.56.56 0 0 0-.03-.2.39.39 0 0 0-.13-.18c-.06-.05-.14-.1-.25-.15l-.43-.16c-.19-.06-.37-.13-.55-.21a2.26 2.26 0 0 1-.45-.27c-.13-.11-.24-.23-.31-.37a1 1 0 0 1-.11-.48 1 1 0 0 1 .11-.49c.08-.14.19-.27.33-.37.14-.1.3-.19.5-.25a2.25 2.25 0 0 1 1.46.09c.23.11.41.27.54.47.13.2.2.42.2.67h-.87a.66.66 0 0 0-.08-.33.54.54 0 0 0-.24-.22.84.84 0 0 0-.39-.08.9.9 0 0 0-.38.07.5.5 0 0 0-.23.18.45.45 0 0 0-.08.26c0 .07.02.14.06.2.03.05.09.1.16.16a3.83 3.83 0 0 0 .63.28c.24.07.44.14.62.23.17.09.32.19.44.3a1.1 1.1 0 0 1 .36.84c0 .19-.03.35-.1.5-.08.15-.18.27-.32.37-.14.1-.3.18-.49.23a2.37 2.37 0 0 1-1.82-.25 1.25 1.25 0 0 1-.55-1.06h.89c0 .13.02.24.06.33.04.1.1.17.17.23.08.05.17.1.27.12.1.03.22.04.34.04.16 0 .28-.02.38-.07a.46.46 0 0 0 .3-.43Z"/></symbol>
<symbol id= "second"><path  d="M17.11 3.02h-.13L16.35 3h-.46a23.94 23.94 0 0 0-1.3.03c-3.64.2-7.2 1.12-10.51 2.68l-.43.21v22.14l1.01-.34a34.33 34.33 0 0 1 10.9-1.91v2.9l-1.06.04h-.08A32.36 32.36 0 0 0 .77 32.6V4.2a29.73 29.73 0 0 1 7.79-3.17A29.8 29.8 0 0 1 15.89.1h.43a21.1 21.1 0 0 1 5.13.65V3.6a22.62 22.62 0 0 0-3.61-.54c-.25-.02-.5-.04-.73-.04Zm5.04 2.93a31.47 31.47 0 0 0 9.67-.92 31.78 31.78 0 0 0 7.42-2.9v27.9a29.81 29.81 0 0 1-7.79 3.16c-2.4.62-4.86.94-7.33.95a22.4 22.4 0 0 1-5.57-.66V5.41a22.96 22.96 0 0 0 3.6.54Zm14.2.21-1.01.35a34.26 34.26 0 0 1-13.07 1.86l-.82-.05V31.1l.7.05c.64.06 1.3.09 1.97.09 2.23-.01 4.46-.3 6.62-.86a27.76 27.76 0 0 0 5.17-1.86l.44-.2V6.15Z" clip-rule="evenodd"/><path d="M2.74 42.3a1.5 1.5 0 0 0-1.13-.46c-.22 0-.44.04-.65.13a1.5 1.5 0 0 0-.95 1.47v3.79c0 .27.04.53.15.78.1.2.22.37.38.5.15.13.33.23.52.28.19.05.38.07.57.08a1.6 1.6 0 0 0 1.57-1.6v-.43h-1v.34c.01.12 0 .23-.05.34a.6.6 0 0 1-.14.21.7.7 0 0 1-.41.14.5.5 0 0 1-.47-.2.9.9 0 0 1-.14-.5v-3.54c0-.2.04-.4.13-.57a.5.5 0 0 1 .48-.23.53.53 0 0 1 .44.22.8.8 0 0 1 .17.5v.33h.98v-.38a1.79 1.79 0 0 0-.45-1.2ZM8.63 42.26a1.77 1.77 0 0 0-1.72-.31c-.2.06-.37.17-.52.3-.17.15-.3.34-.39.54-.1.23-.15.48-.14.73v3.64c-.01.26.04.51.14.75.09.2.22.37.39.5.15.15.32.25.52.33a1.74 1.74 0 0 0 1.18 0 1.55 1.55 0 0 0 1.05-1.57v-3.65a1.64 1.64 0 0 0-.52-1.27Zm-.46 4.9a.65.65 0 0 1-.2.53.73.73 0 0 1-.93 0 .65.65 0 0 1-.2-.53v-3.64a.65.65 0 0 1 .2-.52.73.73 0 0 1 .93 0 .65.65 0 0 1 .2.52v3.64ZM16.37 48.79v-6.9h-.96l-1.25 3.65h-.02l-1.26-3.64h-.94v6.89h.98v-4.2h.02l.96 2.97h.5l.97-2.96h.01v4.19h.99ZM21.96 42.38c-.15-.17-.34-.3-.56-.38a2.18 2.18 0 0 0-.71-.1h-1.46v6.89h.98v-2.7h.5c.31.02.61-.04.89-.18a1.65 1.65 0 0 0 .76-1.13 4.9 4.9 0 0 0-.04-1.77 1.47 1.47 0 0 0-.36-.63Zm-.5 2.1c-.01.13-.04.25-.1.36-.06.1-.14.19-.25.24a1 1 0 0 1-.46.09h-.45v-2.34h.5c.16-.01.3.02.45.08.1.06.18.15.23.26a1 1 0 0 1 .08.38V44.48ZM26.6 41.9h-.8l-1.51 6.89h.98l.29-1.48h1.33l.3 1.48h.97l-1.55-6.9Zm-.9 4.47.49-2.5h.01l.48 2.5h-.98ZM32.95 46.05h-.02l-1.48-4.15h-.94v6.89h.98v-4.15h.02L33 48.8h.92v-6.9h-.98v4.16ZM38.95 41.9l-.8 2.74h-.01l-.8-2.74h-1.03l1.35 3.97v2.92h.98v-2.92l1.35-3.97h-1.04Z"/></symbol>

<symbol id="astronaut"><path fill="#2196F3" d="M69.94 9.9c-.13-.42-.5-.73-.94-.8l-4.18-.6-1.87-3.8c-.39-.79-1.7-.79-2.09 0L59 8.5l-4.18.6a1.17 1.17 0 0 0-.65 2l3.03 2.94-.71 4.16a1.17 1.17 0 0 0 1.69 1.23l3.74-1.96 3.73 1.96a1.17 1.17 0 0 0 1.7-1.23l-.72-4.16 3.03-2.95c.32-.3.43-.77.3-1.2Zm-5.38 2.9c-.28.27-.4.65-.34 1.03l.42 2.44-2.19-1.15a1.16 1.16 0 0 0-1.09 0l-2.19 1.15.42-2.44c.07-.38-.06-.76-.33-1.03l-1.78-1.73 2.45-.35c.38-.06.71-.3.88-.64l1.1-2.22L63 10.08c.17.34.5.58.88.64l2.45.35-1.77 1.73ZM57.17 44.9h-2.34v2.33h2.34v-2.34ZM57.17 49.56h-2.34v2.33h2.34v-2.33ZM59.5 47.23h-2.33v2.33h2.33v-2.33ZM54.83 47.23H52.5v2.33h2.33v-2.33ZM49 57.73h-2.33v2.33H49v-2.33ZM49 62.4h-2.33v2.33H49v-2.34ZM51.33 60.06H49v2.33h2.33v-2.33ZM46.67 60.06h-2.34v2.33h2.34v-2.33ZM35 53.06h-2.33v2.33H35v-2.33ZM35 57.73h-2.33v2.33H35v-2.33ZM37.33 55.4H35v2.33h2.33v-2.34ZM32.67 55.4h-2.34v2.33h2.34v-2.34ZM12.83 13.4H10.5v2.33h2.33v-2.34ZM12.83 18.06H10.5v2.33h2.33v-2.33ZM15.17 15.73h-2.34v2.33h2.34v-2.33ZM10.5 15.73H8.17v2.33h2.33v-2.33Z"/><path fill="#212121" d="M54.06 30.97a3.88 3.88 0 0 0-2.6-1.54 3.89 3.89 0 0 0-2.93.77l-2.73 2.1-4.16 3.1-2.97-1.18c5.3-2.38 9-7.67 9-13.83 0-8.36-6.83-15.16-15.23-15.16s-15.22 6.8-15.22 15.16c0 3.04.9 5.85 2.45 8.23l-6.05-.06h-.01l-.05.01c-.12 0-.23.03-.34.07l-.08.03-.05.01-7.07 3.5-4.14 1.99a3.9 3.9 0 0 0 3.88 6.76l3.03-1.61 4.95-2.56 2.97-.02L4.81 48.6l-2.93 2.92a3.6 3.6 0 0 0 0 5.15 3.65 3.65 0 0 0 5.16 0L9.9 53.8l3.81-2.84 1.97 1.96-3.85 3.84-2.93 2.91a3.6 3.6 0 0 0 0 5.16 3.65 3.65 0 0 0 5.16 0L17 61.9l4.68-4.66 2.22-2.2h-.01l.04-.04 11.3-12.38 7.6 1.09a1.1 1.1 0 0 0 .57-.08l.11-.05c.04-.02.09-.03.13-.06l7.03-4.66.06-.07.09-.05 2.78-2.61a3.9 3.9 0 0 0 .46-5.17Zm-49.4 7.9a1.56 1.56 0 0 1-1.69-2.64l2.88-1.38.69 2.02.29.85-2.17 1.15Zm7.65-4-3.39 1.75L8.36 35l-.4-1.17 4.44-2.2-.09 3.25ZM45.34 20.4c0 2.01-.48 3.9-1.31 5.6l-9.15-4.15a4.07 4.07 0 0 0-1.72-3.04l3.2-10.63c5.2 1.65 8.98 6.5 8.98 12.22Zm-25.79 0A12.88 12.88 0 0 1 34.08 7.67l-3.14 10.4-.12-.01a4.1 4.1 0 0 0-4.1 4.08 4.1 4.1 0 0 0 7.64 2.02L42.8 28a12.89 12.89 0 0 1-23.26-7.6Zm13.03 1.75a1.76 1.76 0 0 1-3.53 0c0-.96.8-1.75 1.77-1.75s1.76.79 1.76 1.75ZM5.4 55.01c-.51.51-1.35.5-1.87 0a1.3 1.3 0 0 1 0-1.85l2.1-2.1 1.87 1.86L5.39 55Zm7.03 8.16c-.51.52-1.35.52-1.87 0a1.3 1.3 0 0 1 0-1.84l2.1-2.1.89.88.98.97-2.1 2.1Zm7.62-7.58-3.87 3.85-.88-.88-.98-.98 3.86-3.83c.09-.1.14-.2.2-.3l.05-.1c.04-.08.05-.18.06-.27 0-.06.03-.1.03-.16 0-.08-.03-.16-.04-.23l-.04-.21c-.05-.11-.12-.2-.2-.3l-.06-.09-3.52-3.5c-.03-.04-.08-.05-.12-.08-.07-.05-.13-.1-.2-.13a1.1 1.1 0 0 0-.2-.07 1.13 1.13 0 0 0-.22-.05c-.07 0-.14 0-.21.02-.08 0-.15.02-.23.04-.07.02-.14.06-.2.1-.05.02-.1.03-.14.06l-3.88 2.9-1.97-1.97 5.25-5.22 9.54 9.39-2.03 2Zm14.91-15.35h-.1a1.15 1.15 0 0 0-.83.3l-.09.07-10.28 11.25-9.46-9.3 6.2-6.17a1.17 1.17 0 0 0-.84-2l-4.85.03.06-3.52 6.79.06a15.2 15.2 0 0 0 13.7 4.33c.08.07.17.14.28.19l5.27 2.1.33 1.66.4 1.93-6.58-.93Zm8.84.39-.68-3.41 3.16-2.36.83 1.1 1.24 1.64-4.55 3.03Zm8.22-6.2-1.84 1.72-2.03-2.7 1.81-1.4a1.6 1.6 0 0 1 1.2-.31 1.57 1.57 0 0 1 .86 2.7Z"/><path fill="#212121" d="m29.75 40.57-4.68-4.67a1.17 1.17 0 0 0-1.65 0l-4.69 4.67a1.17 1.17 0 0 0 0 1.65l4.69 4.67a1.17 1.17 0 0 0 1.65 0l4.68-4.67a1.17 1.17 0 0 0 0-1.65Zm-5.5 3.84L21.2 41.4l3.03-3.02 3.04 3.02-3.04 3.02ZM37.55 11.1l-.57 2.26c.16.04 3.8.99 3.8 4.7h2.34c0-4.41-3.65-6.49-5.57-6.97ZM43.12 20.4h-2.34v2.33h2.34v-2.34Z"/></symbol>
<symbol id="pc"><g clip-path="url(#a)"><path fill="#2196F3" d="M32.65 32.74h2.33v10.49h-2.33v-10.5ZM41.98 37.4h2.33v5.83h-2.33V37.4ZM23.32 40.9h2.33v2.33h-2.33V40.9ZM16.32 39.73h2.34v3.5h-2.34v-3.5Z"/><path fill="#212121" d="M3.5 61.89h55.97a3.5 3.5 0 0 0 3.5-3.5v-4.67a3.5 3.5 0 0 0-3.5-3.5H58.3V21.16l6.63-6.28a3.52 3.52 0 1 0-1.64-1.67l-4.99 4.73v-2.69a3.5 3.5 0 0 0-3.5-3.5H8.16a3.5 3.5 0 0 0-3.5 3.5v34.99H3.5a3.5 3.5 0 0 0-3.5 3.5v4.66a3.5 3.5 0 0 0 3.5 3.5Zm62.97-51.31a1.17 1.17 0 1 1 0 2.33 1.17 1.17 0 0 1 0-2.33ZM7 15.24c0-.64.52-1.16 1.16-1.16H54.8c.65 0 1.17.52 1.17 1.16v4.9l-2.33 2.22v-4.78c0-.65-.52-1.17-1.17-1.17H10.5c-.64 0-1.16.52-1.16 1.17v29.15c0 .64.52 1.16 1.16 1.16h41.98c.65 0 1.17-.52 1.17-1.16V25.57l2.33-2.21v26.87H7V15.24ZM17.5 30.4a3.5 3.5 0 1 0 2.41 6.01l4.06 2.04c.47.23 1.04.12 1.39-.27l8.61-9.7 8.47 6.35c.46.34 1.1.3 1.5-.08l7.37-6.98v17.8H11.66V18.73h39.65v5.82l-8.25 7.81-8.54-6.4a1.17 1.17 0 0 0-1.58.16l-8.73 9.83-3.27-1.64c.03-.14.04-.28.05-.42a3.5 3.5 0 0 0-3.5-3.5Zm1.16 3.5a1.17 1.17 0 1 1-2.34 0 1.17 1.17 0 0 1 2.34 0Zm7 18.66H37.3v1.16c0 .65-.52 1.17-1.16 1.17h-9.33c-.64 0-1.17-.52-1.17-1.17v-1.16ZM2.32 53.72c0-.64.52-1.16 1.17-1.16h19.82v1.16a3.5 3.5 0 0 0 3.5 3.5h9.33a3.5 3.5 0 0 0 3.5-3.5v-1.16h19.82c.64 0 1.16.52 1.16 1.16v4.67c0 .64-.52 1.16-1.16 1.16H3.5c-.65 0-1.17-.52-1.17-1.16v-4.67Z"/></g><defs><clipPath id="a"><path fill="#fff" d="M0 0h70v70H0z"/></clipPath></defs></symbol>
<symbol id="antena"><path fill="#212121" d="m67.32 48.34-18.47-18.6 2.05-10.1c.53.2 1.09.31 1.66.32h.01a4.72 4.72 0 1 0-4.4-3.14l-10.84 1.32L19.63.35A1.17 1.17 0 0 0 18.8 0c-.3 0-.6.12-.81.34l-3.31 3.29c-.46.46-.46 1.2 0 1.65l1.78 1.8a32.69 32.69 0 0 0 5.51 38.64c.1.1.2.16.32.22-.07.4-.11.8-.11 1.2v13.53h-14a5.84 5.84 0 0 0-5.84 5.83v2.33c0 .65.52 1.17 1.17 1.17h53.67c.64 0 1.16-.52 1.16-1.17V66.5a5.84 5.84 0 0 0-5.83-5.83h-14v-6a32.48 32.48 0 0 0 22.07-3.2l1.79 1.8c.21.22.51.35.82.35.3 0 .6-.13.82-.34l3.3-3.3c.46-.45.46-1.19 0-1.64Zm-16.4-34.7a2.33 2.33 0 1 1 1.65 3.98 2.33 2.33 0 0 1-1.64-3.99Zm-2.74 7.66-1.31 6.44-2.57-2.58 3.88-3.86Zm-1.33-1.97-4.2 4.17-3.25-3.26 7.45-.91ZM52.51 63a3.5 3.5 0 0 1 3.5 3.5v1.17H4.68V66.5a3.5 3.5 0 0 1 3.5-3.5H52.5Zm-16.33-4.67v2.34H24.5v-2.34h11.67ZM24.5 56v-8.87c0-2.83 2.62-5.13 5.83-5.13 3.22 0 5.84 2.3 5.84 5.13V56H24.5Zm14-3.71v-5.16c0-4.11-3.66-7.46-8.17-7.46a8.31 8.31 0 0 0-7.18 3.9 30.34 30.34 0 0 1-4.98-34.75l40.7 40.93a30.23 30.23 0 0 1-20.37 2.54Zm24.7-1.5-1.65-1.65L18.79 6.12l-1.65-1.66 1.65-1.64 17.36 17.45.02.02 28.69 28.86-1.66 1.64Z"/><path fill="#2196F3" d="M30.35 44.33a3.5 3.5 0 0 0-.02 7h.01a3.5 3.5 0 1 0 .01-7Zm.82 4.33a1.17 1.17 0 1 1-.83-2 1.17 1.17 0 0 1 .82 2Z"/></symbol>
<symbol id="clock"><g clip-path="url(#a)" filter="url(#b)"><path fill="#212121" d="M71.46 33.47a33.48 33.48 0 1 0-43.66 31.9 1.48 1.48 0 0 0 1.16-.14c.3-.18.51-.45.62-.78l8.45-26.8a4.18 4.18 0 1 0-1.84-7.95L25.03 18.53a1.4 1.4 0 0 0-1.98 1.97l11.17 11.18a4.1 4.1 0 0 0 1.17 5.05l-8.06 25.53a30.72 30.72 0 1 1 23.12-.76l-.87-4.1a1.4 1.4 0 0 0-2.29-.75l-8.4 7.5a1.4 1.4 0 0 0 .51 2.36l10.72 3.42a1.4 1.4 0 0 0 1.79-1.62l-.86-4.02a33.37 33.37 0 0 0 20.41-30.82Zm-33.48-1.4a1.4 1.4 0 1 1 0 2.8 1.4 1.4 0 0 1 0-2.8Zm4.6 32.52 4.78-4.26 1.31 6.21-6.1-1.95Z"/><path fill="#2196F3" d="M36.59 6.97v2.79a1.4 1.4 0 1 0 2.79 0v-2.8a1.4 1.4 0 0 0-2.8 0ZM11.48 32.08a1.4 1.4 0 0 0 0 2.79h2.79a1.4 1.4 0 1 0 0-2.8h-2.8ZM64.49 34.87a1.4 1.4 0 1 0 0-2.8h-2.8a1.4 1.4 0 0 0 0 2.8h2.8Z"/></g><defs><clipPath id="a"><path fill="#fff" d="M3 0h70v70H3z"/></clipPath><feFlood flood-opacity="0" result="BackgroundImageFix"/><feColorMatrix in="SourceAlpha" result="hardAlpha" values="0 0 0 0 0 0 0 0 0 0 0 0 0 0 0 0 0 0 127 0"/><feOffset dy="4"/><feGaussianBlur stdDeviation="2"/><feComposite in2="hardAlpha" operator="out"/><feColorMatrix values="0 0 0 0 0 0 0 0 0 0 0 0 0 0 0 0 0 0 0.25 0"/><feBlend in2="BackgroundImageFix" result="effect1_dropShadow_75273_446"/><feBlend in="SourceGraphic" in2="effect1_dropShadow_75273_446" result="shape"/></defs></symbol>


<symbol id="email" > <path d="M14.5 0h-13C.67 0 0 .67 0 1.5v9c0 .83.67 1.5 1.5 1.5h13c.83 0 1.5-.67 1.5-1.5v-9c0-.83-.67-1.5-1.5-1.5Zm0 1a.5.5 0 0 1 .2.04L8 6.84l-6.7-5.8A.5.5 0 0 1 1.5 1h13Zm0 10h-13a.5.5 0 0 1-.5-.5V2.1l6.67 5.78a.5.5 0 0 0 .66 0L15 2.1v8.4a.5.5 0 0 1-.5.5Z"/></symbol>
<symbol id="phone"><path d="M8.5 0H1.5C0.672848 0 0 0.672848 0 1.5V14.5C0 15.3272 0.672848 16 1.5 16H8.5C9.32715 16 10 15.3272 10 14.5V1.5C10 0.672848 9.32715 0 8.5 0ZM1.5 1H8.5C8.77588 1 9 1.22412 9 1.5V12H1V1.5C1 1.22412 1.22412 1 1.5 1ZM8.5 15H1.5C1.22412 15 1 14.7759 1 14.5V13H9V14.5C9 14.7759 8.77588 15 8.5 15Z" /><path d="M2.35355 13.7389C2.54882 13.9213 2.54882 14.2169 2.35355 14.3992C2.15828 14.5816 1.84172 14.5816 1.64645 14.3992C1.45118 14.2169 1.45118 13.9213 1.64645 13.7389C1.84172 13.5566 2.15828 13.5566 2.35355 13.7389Z" fill="#757575"/></symbol>

<symbol id="check"><path stroke-width=".2" d="m1.96 4.75-.07-.06-.07.06-.89.84-.08.07.08.08 3.5 3.33.07.07.06-.07 7.5-7.16.08-.07-.07-.07-.88-.84-.07-.07-.07.07L4.5 7.17 1.96 4.75Z"/></symbol>


<symbol id= "linkedin" ><g clip-path="url(#a)"><path d="M20 20v-7.34c0-3.58-.77-6.35-4.97-6.35a4.35 4.35 0 0 0-3.92 2.16h-.06V6.65H7.07V20h4.15v-6.61c0-1.74.33-3.43 2.48-3.43 2.13 0 2.16 1.99 2.16 3.54V20H20ZM.33 6.65h4.15V20H.33V6.65ZM2.4 0A2.4 2.4 0 0 0 0 2.4a2.42 2.42 0 0 0 2.4 2.43c1.33 0 2.4-1.1 2.4-2.43A2.4 2.4 0 0 0 2.4 0Z"/></g><defs><clipPath id="a"><path fill="#fff" d="M0 0h20v20H0z"/></clipPath></defs></symbol>
<symbol id="facebook"><g clip-path="url(#a)"><path d="M13.33 3.32h1.83V.14C14.84.1 13.76 0 12.5 0 9.86 0 8.06 1.66 8.06 4.7v2.8h-2.9v3.55h2.9V20h3.56v-8.94h2.79l.44-3.56h-3.23V5.05c0-1.03.28-1.73 1.71-1.73Z"/></g><defs><clipPath id="a"><path fill="#fff" d="M0 0h20v20H0z"/></clipPath></defs></symbol>
<symbol id="ins"><g  clip-path="url(#a)"><path d="M19.98 5.88a7.3 7.3 0 0 0-.46-2.43 4.88 4.88 0 0 0-1.16-1.77c-.5-.5-1.1-.9-1.77-1.15a7.33 7.33 0 0 0-2.43-.47A68.25 68.25 0 0 0 10.04 0C7.32 0 6.98.01 5.92.06 4.85.1 4.12.28 3.49.52c-.67.26-1.27.65-1.77 1.16-.51.5-.9 1.1-1.16 1.77A7.33 7.33 0 0 0 .1 5.88 68.25 68.25 0 0 0 .04 10c0 2.72 0 3.06.05 4.12a7.3 7.3 0 0 0 .47 2.43c.25.67.65 1.27 1.16 1.77.5.51 1.1.9 1.77 1.16.63.24 1.36.41 2.42.46 1.07.05 1.4.06 4.12.06s3.06-.01 4.13-.06a7.3 7.3 0 0 0 2.42-.46 5.12 5.12 0 0 0 2.93-2.93c.24-.64.42-1.36.46-2.43.05-1.06.06-1.4.06-4.12 0-2.71 0-3.05-.05-4.12Zm-1.8 8.17c-.04.97-.2 1.5-.34 1.85a3.32 3.32 0 0 1-1.9 1.9c-.35.14-.89.3-1.86.34-1.05.05-1.37.06-4.04.06A70.3 70.3 0 0 1 6 18.14c-.98-.04-1.5-.2-1.85-.34A3.08 3.08 0 0 1 3 17.05a3.1 3.1 0 0 1-.75-1.14 5.5 5.5 0 0 1-.34-1.86 70.37 70.37 0 0 1-.06-4.04c0-2.67.01-2.99.06-4.04.04-.98.2-1.5.34-1.86.16-.43.41-.82.75-1.14a3.1 3.1 0 0 1 1.15-.75c.35-.14.88-.3 1.86-.34 1.05-.05 1.37-.06 4.03-.06 2.68 0 3 0 4.04.06.98.04 1.5.2 1.86.34.43.16.83.41 1.15.75.33.32.59.71.75 1.14.13.36.3.89.34 1.86.05 1.05.06 1.37.06 4.04s-.01 2.98-.06 4.04Z"/><path d="M10.04 4.86a5.14 5.14 0 1 0 0 10.28 5.14 5.14 0 0 0 0-10.28Zm0 8.47a3.33 3.33 0 1 1 0-6.66 3.33 3.33 0 0 1 0 6.66ZM16.58 4.66a1.2 1.2 0 1 1-2.4 0 1.2 1.2 0 0 1 2.4 0Z"/></g><defs><clipPath id="a"><path fill="#fff" d="M0 0h20v20H0z"/></clipPath></defs></symbol>
<symbol id="twitter"><path d="M20 3.8c-.74.33-1.54.54-2.36.65.85-.51 1.5-1.3 1.8-2.27-.8.47-1.67.8-2.6 1a4.1 4.1 0 0 0-7 3.73A11.6 11.6 0 0 1 1.4 2.62 4.13 4.13 0 0 0 2.65 8.1C2 8.1 1.35 7.9.8 7.6v.04c0 2 1.42 3.65 3.29 4.03a4.09 4.09 0 0 1-1.86.07 4.14 4.14 0 0 0 3.84 2.85A8.24 8.24 0 0 1 0 16.3a11.54 11.54 0 0 0 6.29 1.84c7.55 0 11.67-6.25 11.67-11.67 0-.18 0-.36-.02-.53.82-.58 1.5-1.3 2.06-2.13Z"/><defs><clipPath id="a"><path fill="#fff" d="M0 0h20v20H0z"/></clipPath></defs></symbol>

<symbol id="number"><path  d="m14 11.12-1.84-.2c-.44-.06-.88.1-1.19.4l-1.33 1.34a10.89 10.89 0 0 1-4.77-4.77l1.34-1.34c.31-.31.46-.75.41-1.19l-.2-1.82a1.45 1.45 0 0 0-1.45-1.28H3.72c-.82 0-1.5.68-1.45 1.5a12.3 12.3 0 0 0 11.5 11.5c.82.05 1.5-.63 1.5-1.45v-1.25c0-.74-.54-1.35-1.27-1.44Z"/><defs><clipPath id="a"><path fill="#fff" d="M0 0h18v18H0z"/></clipPath></defs></symbol>
<symbol id="name"> <path  d="M9 9a3 3 0 1 0 0-6 3 3 0 0 0 0 6Zm0 1.5c-2 0-6 1-6 3v.75c0 .41.34.75.75.75h10.5c.41 0 .75-.34.75-.75v-.75c0-2-4-3-6-3Z"/><defs><clipPath id="a"><path fill="#fff" d="M0 0h18v18H0z"/></clipPath></defs></symbol>
<symbol id="mail"><path  d="M15 3H3c-.83 0-1.5.67-1.5 1.5v9c0 .82.67 1.5 1.5 1.5h12c.82 0 1.5-.68 1.5-1.5v-9c0-.83-.68-1.5-1.5-1.5Zm-.3 3.19L9.4 9.5a.76.76 0 0 1-.8 0L3.3 6.2a.64.64 0 1 1 .68-1.08L9 8.25l5.03-3.14a.64.64 0 1 1 .67 1.08Z"/><defs><clipPath id="a"><path fill="#fff" d="M0 0h18v18H0z"/></clipPath></defs></symbol>
<symbol id="send"><path fill="#fff" d="M24 0 0 13.5l7.67 2.84L19.5 5.25l-9 12.14V24l4.3-5.02L20.25 21 24 0Z"/></symbol>

<symbol id="toggle"><path d="M8 14.67V12h24v2.67H8Zm0 6.66h24v-2.66H8v2.66ZM8 28h24v-2.67H8V28Z"/></symbol>

</defs>
</svg>
